HIERARCHY
ROOT Hips
{
	OFFSET 0.00000 0.00000 0.00000
	CHANNELS 6 Xposition Yposition Zposition Zrotation Yrotation Xrotation 
	JOINT LHipJoint
	{
		OFFSET 0 0 0
		CHANNELS 3 Zrotation Yrotation Xrotation
		JOINT LeftHip
		{
			OFFSET 1.52977 -1.71332 0.88991
			CHANNELS 3 Zrotation Yrotation Xrotation
			JOINT LeftKnee
			{
				OFFSET 2.23949 -6.15296 0.00000
				CHANNELS 3 Zrotation Yrotation Xrotation
				JOINT LeftAnkle
				{
					OFFSET 2.68396 -7.37412 0.00000
					CHANNELS 3 Zrotation Yrotation Xrotation
					JOINT LeftToe
					{
						OFFSET 0.20538 -0.56428 2.52710
						CHANNELS 3 Zrotation Yrotation Xrotation
						End Site
						{
							OFFSET 0.00000 -0.00000 1.29919
						}
					}
				}
			}
		}
	}
	JOINT RHipJoint
	{
		OFFSET 0 0 0
		CHANNELS 3 Zrotation Yrotation Xrotation
		JOINT RightHip
		{
			OFFSET -1.45689 -1.71333 0.88991
			CHANNELS 3 Zrotation Yrotation Xrotation
			JOINT RightKnee
			{
				OFFSET -2.36700 -6.50329 0.00000
				CHANNELS 3 Zrotation Yrotation Xrotation
				JOINT RightAnkle
				{
					OFFSET -2.69814 -7.41308 0.00000
					CHANNELS 3 Zrotation Yrotation Xrotation
					JOINT RightToe
					{
						OFFSET -0.18734 -0.51471 2.37479
						CHANNELS 3 Zrotation Yrotation Xrotation
						End Site
						{
							OFFSET -0.00000 -0.00000 1.22113
						}
					}
				}
			}
		}
	}
	JOINT lowerback
	{
		OFFSET 0 0 0
		CHANNELS 3 Zrotation Yrotation Xrotation
		JOINT Chest
		{
			OFFSET 0.04294 2.14638 -0.31163
			CHANNELS 3 Zrotation Yrotation Xrotation
			JOINT Chest2
			{
				OFFSET -0.00400 2.17216 0.01486
				CHANNELS 3 Zrotation Yrotation Xrotation
				JOINT lowerneck
				{
					OFFSET 0 0 0
					CHANNELS 3 Zrotation Yrotation Xrotation
					JOINT Neck
					{
						OFFSET 0.03869 1.76598 0.14916
						CHANNELS 3 Zrotation Yrotation Xrotation
						JOINT Head
						{
							OFFSET -0.00760 1.75513 -0.18948
							CHANNELS 3 Zrotation Yrotation Xrotation
							End Site
							{
								OFFSET -0.00601 1.82444 -0.08310
							}
						}
					}
				}
				JOINT LeftCollar
				{
					OFFSET 0 0 0
					CHANNELS 3 Zrotation Yrotation Xrotation
					JOINT LeftShoulder
					{
						OFFSET 3.73696 0.92058 0.01733
CHANNELS 3 Zrotation Xrotation Yrotation
						JOINT LeftElbow
						{
OFFSET 0 -5.227710 0.000000
CHANNELS 3 Zrotation Xrotation Yrotation
							JOINT LeftWrist
							{
OFFSET 0 -3.452510 0.000000
CHANNELS 3 Zrotation Xrotation Yrotation
								JOINT lhand
								{
									OFFSET 0 0 0
CHANNELS 3 Zrotation Xrotation Yrotation
									JOINT LFingers
									{
OFFSET 0 -0.552120 0.000000
CHANNELS 3 Zrotation Xrotation Yrotation
										End Site
										{
OFFSET 0 -0.445130 0.000000
										}
									}
								}
								JOINT LThumb
								{
OFFSET 0 0.000000 0.000000
CHANNELS 3 Zrotation Xrotation Yrotation
									End Site
									{
OFFSET 0 -0.451930 0.451930
									}
								}
							}
						}
					}
				}
				JOINT RightCollar
				{
					OFFSET 0 0 0
					CHANNELS 3 Zrotation Yrotation Xrotation
					JOINT RightShoulder
					{
						OFFSET -3.63819 0.83094 -0.13694
CHANNELS 3 Zrotation Xrotation Yrotation
						JOINT RightElbow
						{
OFFSET 0 -5.239800 -0.000000
CHANNELS 3 Zrotation Xrotation Yrotation
							JOINT RightWrist
							{
OFFSET 0 -3.480420 -0.000000
CHANNELS 3 Zrotation Xrotation Yrotation
								JOINT rhand
								{
									OFFSET 0 0 0
CHANNELS 3 Zrotation Xrotation Yrotation
									JOINT RFingers
									{
OFFSET 0 -0.618710 0.000000
CHANNELS 3 Zrotation Xrotation Yrotation
										End Site
										{
OFFSET 0 -0.498820 0.000000
										}
									}
								}
								JOINT RThumb
								{
OFFSET 0 0.000000 0.000000
CHANNELS 3 Zrotation Xrotation Yrotation
									End Site
									{
OFFSET 0 -0.506440 0.506440
									}
								}
							}
						}
					}
				}
			}
		}
	}
}
MOTION
Frames: 5
Frame Time: 0.008333333333333333
-1.707654 16.774855 -5.491508 -155.306075 -83.918074 151.844426 0.000000 0.000000 0.000000 -19.118130 5.233356 -14.506557 1.467725 7.656128 21.674452 -0.105940 -11.145564 -6.110281 0.000680 -0.156360 -0.429687 0.000000 0.000000 0.000000 25.866833 -0.807321 9.341528 -3.059868 -10.789335 31.574763 -1.153299 1.329460 -19.902569 -0.261410 3.288254 -9.082521 2.989095 -0.384440 -0.667443 -0.692894 -0.555114 1.403688 -2.399481 -0.233149 1.779775 2.160909 0.927111 -7.571838 1.405449 0.716806 11.733959 0.123053 0.497257 4.769295 0.000000 0.000000 0.000000 2.862239 3.824744 -20.961856 16.335235 -25.972913 3.791697 19.384591 -14.830499 -13.669187 0.000000 0.000000 0.000000 -7.125000 0.000000 0.000000 -7.395140 44.310560 -0.126586 0.000000 0.000000 0.000000 0.284729 4.025913 25.696735 -16.189520 -25.776988 -3.728024 -17.570851 3.200398 7.537521 0.000000 0.000000 0.000000 7.125000 0.000000 0.000000 7.898008 37.774186 1.415466
-1.481121 16.779646 -5.523353 -151.550464 -83.660318 148.122873 0.000000 0.000000 0.000000 -18.425770 4.768127 -15.237010 1.466879 7.653999 21.668081 -0.097035 -10.396814 -5.606111 0.002077 -0.292811 -0.804366 0.000000 0.000000 0.000000 26.709162 -1.239834 10.162451 -2.551967 -9.931351 28.755046 -1.294175 0.773335 -21.274133 -0.185349 2.771843 -7.644110 3.547007 -0.281776 -0.713463 -0.570769 -0.431185 1.421774 -2.585127 -0.163182 1.830187 2.110018 0.881611 -7.556120 1.408741 0.660253 11.780228 0.128817 0.467597 4.780412 0.000000 0.000000 0.000000 3.000490 3.901027 -21.232937 16.733401 -26.504920 3.967647 19.402142 -15.096377 -13.618193 0.000000 0.000000 0.000000 -7.125000 0.000000 0.000000 -7.368514 44.259471 -0.135473 0.000000 0.000000 0.000000 0.170785 3.924446 25.968175 -16.313635 -25.943975 -3.782098 -17.495525 3.204974 7.600837 0.000000 0.000000 0.000000 7.125000 0.000000 0.000000 7.971045 37.834749 1.416818
-1.247470 16.785305 -5.559162 -148.209636 -83.387676 144.791205 0.000000 0.000000 0.000000 -17.732670 4.308849 -15.920727 1.450453 7.612910 21.544445 -0.102967 -9.464750 -4.614544 0.000455 -0.122950 -0.337753 0.000000 0.000000 0.000000 27.574211 -1.463551 10.764610 -2.146868 -9.164006 26.310813 -1.401041 0.187161 -22.333649 -0.105534 2.089265 -5.752595 4.041712 -0.185468 -0.722081 -0.440927 -0.315308 1.467321 -2.727002 -0.097649 1.889530 2.085788 0.860097 -7.536421 1.400733 0.636100 11.776619 0.128742 0.454142 4.775822 0.000000 0.000000 0.000000 3.125461 3.898836 -21.403399 17.000931 -26.859001 4.087764 19.398412 -15.279466 -13.516515 0.000000 0.000000 0.000000 -7.125000 0.000000 0.000000 -7.350610 44.153110 -0.154504 0.000000 0.000000 0.000000 0.047501 3.789581 26.274584 -16.415406 -26.080647 -3.826748 -17.546998 3.053061 7.605376 0.000000 0.000000 0.000000 7.125000 0.000000 0.000000 7.928216 37.842882 1.407514
-1.004828 16.789745 -5.597028 -145.403392 -83.183531 141.969771 0.000000 0.000000 0.000000 -17.117788 3.749969 -16.579423 1.426365 7.552133 21.361858 -0.113771 -8.347761 -3.168680 0.002247 0.294446 0.809166 0.000000 0.000000 0.000000 28.374628 -1.482164 11.123074 -1.840638 -8.525240 24.321592 -1.483393 -0.273516 -23.141162 -0.043414 1.338926 -3.681931 4.421060 -0.118572 -0.610082 -0.323154 -0.230811 1.494160 -2.816495 -0.051513 1.860837 2.083485 0.869304 -7.507885 1.385217 0.651977 11.765989 0.125174 0.460717 4.767771 0.000000 0.000000 0.000000 3.231382 3.859208 -21.468327 17.115763 -27.010083 4.139729 19.400602 -15.370018 -13.411442 0.000000 0.000000 0.000000 -7.125000 0.000000 0.000000 -7.326794 44.043937 -0.173882 0.000000 0.000000 0.000000 -0.074434 3.667892 26.566968 -16.485875 -26.175101 -3.857833 -17.683621 2.845384 7.579316 0.000000 0.000000 0.000000 7.125000 0.000000 0.000000 7.808680 37.825006 1.389458
-0.755314 16.794421 -5.635240 -142.902780 -83.046705 139.460357 0.000000 0.000000 0.000000 -16.565670 3.105774 -17.217798 1.391422 7.462933 21.094453 -0.114669 -7.115319 -1.481232 0.015172 0.792579 2.178385 0.000000 0.000000 0.000000 29.080123 -1.298589 11.204829 -1.624740 -8.035945 22.823565 -1.543360 -0.516962 -23.689391 -0.008473 0.582835 -1.601670 4.714083 -0.084203 -0.442303 -0.215705 -0.184224 1.510692 -2.868844 -0.026901 1.787594 2.091986 0.898424 -7.492814 1.368869 0.693641 11.746674 0.121265 0.480535 4.759522 0.000000 0.000000 0.000000 3.304556 3.763664 -21.416077 17.071167 -26.951410 4.119563 19.406334 -15.319306 -13.365061 0.000000 0.000000 0.000000 -7.125000 0.000000 0.000000 -7.312051 43.996320 -0.182145 0.000000 0.000000 0.000000 -0.198666 3.543135 26.802860 -16.538893 -26.245821 -3.881195 -17.788287 2.677888 7.547557 0.000000 0.000000 0.000000 7.125000 0.000000 0.000000 7.715427 37.798890 1.377551
